<svg viewBox="0 0 300 300" version="1.1" xmlns="http://www.w3.org/2000/svg" xmlns:xlink="http://www.w3.org/1999/xlink" id="el_i-i8FnTzUe"><style>@-webkit-keyframes el_as9CsOHGsXm_SGeioqXmz_Animation{73.33%{-webkit-transform: scale(0, 0);transform: scale(0, 0);}74.44%{-webkit-transform: scale(1.6, 1.6);transform: scale(1.6, 1.6);}83.33%{-webkit-transform: scale(1, 1);transform: scale(1, 1);}0%{-webkit-transform: scale(0, 0);transform: scale(0, 0);}100%{-webkit-transform: scale(1, 1);transform: scale(1, 1);}}@keyframes el_as9CsOHGsXm_SGeioqXmz_Animation{73.33%{-webkit-transform: scale(0, 0);transform: scale(0, 0);}74.44%{-webkit-transform: scale(1.6, 1.6);transform: scale(1.6, 1.6);}83.33%{-webkit-transform: scale(1, 1);transform: scale(1, 1);}0%{-webkit-transform: scale(0, 0);transform: scale(0, 0);}100%{-webkit-transform: scale(1, 1);transform: scale(1, 1);}}@-webkit-keyframes el_Caz6OAMVcZ_sl4lk5FlH_Animation{52.22%{-webkit-transform: scale(1, 1);transform: scale(1, 1);}55.56%{-webkit-transform: scale(1, 0);transform: scale(1, 0);}0%{-webkit-transform: scale(1, 1);transform: scale(1, 1);}100%{-webkit-transform: scale(1, 0);transform: scale(1, 0);}}@keyframes el_Caz6OAMVcZ_sl4lk5FlH_Animation{52.22%{-webkit-transform: scale(1, 1);transform: scale(1, 1);}55.56%{-webkit-transform: scale(1, 0);transform: scale(1, 0);}0%{-webkit-transform: scale(1, 1);transform: scale(1, 1);}100%{-webkit-transform: scale(1, 0);transform: scale(1, 0);}}@-webkit-keyframes el_oL3e-9hZOaq_BbUEVjPuE_Animation{55.56%{-webkit-transform: scale(1, 0);transform: scale(1, 0);}62.22%{-webkit-transform: scale(1, 1);transform: scale(1, 1);}0%{-webkit-transform: scale(1, 0);transform: scale(1, 0);}100%{-webkit-transform: scale(1, 1);transform: scale(1, 1);}}@keyframes el_oL3e-9hZOaq_BbUEVjPuE_Animation{55.56%{-webkit-transform: scale(1, 0);transform: scale(1, 0);}62.22%{-webkit-transform: scale(1, 1);transform: scale(1, 1);}0%{-webkit-transform: scale(1, 0);transform: scale(1, 0);}100%{-webkit-transform: scale(1, 1);transform: scale(1, 1);}}@-webkit-keyframes el_kzkf8elbS1_jYED6fCJ3_Animation{13.33%{-webkit-transform: scale(2.5, 2.5);transform: scale(2.5, 2.5);}25.56%{-webkit-transform: scale(1, 1);transform: scale(1, 1);}0%{-webkit-transform: scale(2.5, 2.5);transform: scale(2.5, 2.5);}100%{-webkit-transform: scale(1, 1);transform: scale(1, 1);}}@keyframes el_kzkf8elbS1_jYED6fCJ3_Animation{13.33%{-webkit-transform: scale(2.5, 2.5);transform: scale(2.5, 2.5);}25.56%{-webkit-transform: scale(1, 1);transform: scale(1, 1);}0%{-webkit-transform: scale(2.5, 2.5);transform: scale(2.5, 2.5);}100%{-webkit-transform: scale(1, 1);transform: scale(1, 1);}}@-webkit-keyframes el_kzkf8elbS1_tbC0PXuvl_Animation{26.67%{-webkit-transform: translate(0px, 20px);transform: translate(0px, 20px);}35.56%{-webkit-transform: translate(0px, -30px);transform: translate(0px, -30px);}41.11%{-webkit-transform: translate(0px, -30px);transform: translate(0px, -30px);}47.78%{-webkit-transform: translate(0px, 40px);transform: translate(0px, 40px);}0%{-webkit-transform: translate(0px, 20px);transform: translate(0px, 20px);}100%{-webkit-transform: translate(0px, 40px);transform: translate(0px, 40px);}}@keyframes el_kzkf8elbS1_tbC0PXuvl_Animation{26.67%{-webkit-transform: translate(0px, 20px);transform: translate(0px, 20px);}35.56%{-webkit-transform: translate(0px, -30px);transform: translate(0px, -30px);}41.11%{-webkit-transform: translate(0px, -30px);transform: translate(0px, -30px);}47.78%{-webkit-transform: translate(0px, 40px);transform: translate(0px, 40px);}0%{-webkit-transform: translate(0px, 20px);transform: translate(0px, 20px);}100%{-webkit-transform: translate(0px, 40px);transform: translate(0px, 40px);}}@-webkit-keyframes el_Hrccbob07q6_Animation{35.56%{opacity: 0;}36.67%{opacity: 1;}0%{opacity: 0;}100%{opacity: 1;}}@keyframes el_Hrccbob07q6_Animation{35.56%{opacity: 0;}36.67%{opacity: 1;}0%{opacity: 0;}100%{opacity: 1;}}#el_i-i8FnTzUe *{-webkit-animation-duration: 3s;animation-duration: 3s;-webkit-animation-timing-function: cubic-bezier(0, 0, 1, 1);animation-timing-function: cubic-bezier(0, 0, 1, 1);}#el_U6JFxvOKQt{stroke: none;stroke-width: 1;fill: none;}#el_doouHLqcsM{fill: #F6F6B4;}#el_4mUAxj5HdX{-webkit-transform: translate(85px, 132px);transform: translate(85px, 132px);}#el_8jfsSN4gss{fill: #FFFFD2;}#el_J7FISV3AKE{fill: #FFFFD2;}#el_P0Gq13Ivfj{fill: #FFFFEE;}#el_Caz6OAMVcZ{fill: #F6F6B4;}#el_kzkf8elbS1{-webkit-transform: translate(96px, 97px);transform: translate(96px, 97px);}#el_y7pRpzInNm{fill: #FFE8F8;}#el_AgNNoXk_V9{fill: #FFA3E5;}#el_qAwa71iNt6q{fill: #FFCAF0;}#el_LFSHOh14zFN{fill: #FFFFB6;}#el_prcUsRYhDlg{fill: #C3FFFF;}#el_9zXv2q4E3T9{fill: #FF69D5;}#el_trE6X5mE3-_{fill: #FF69D5;}#el_Hrccbob07q6{-webkit-transform: translate(85px, 132px);transform: translate(85px, 132px);-webkit-animation-name: el_Hrccbob07q6_Animation;animation-name: el_Hrccbob07q6_Animation;opacity: 0;}#el_Se_iQJXCgV_{fill: #FFFFD2;}#el_4Hy2pZrIzVp{fill: #FFFFD2;}#el_OoTYu10BHlE{fill: #FFFFEE;}#el_oL3e-9hZOaq{fill: #FFFFF6;}#el_as9CsOHGsXm{-webkit-transform: translate(127px, 153px);transform: translate(127px, 153px);fill: #FF69D5;}#el_kzkf8elbS1_tbC0PXuvl{-webkit-animation-name: el_kzkf8elbS1_tbC0PXuvl_Animation;animation-name: el_kzkf8elbS1_tbC0PXuvl_Animation;-webkit-transform-origin: 50% 50%;transform-origin: 50% 50%;transform-box: fill-box;-webkit-transform: translate(0px, 20px);transform: translate(0px, 20px);-webkit-animation-timing-function: cubic-bezier(0.42, 0, 1, 1);animation-timing-function: cubic-bezier(0.42, 0, 1, 1);}#el_kzkf8elbS1_jYED6fCJ3{-webkit-animation-name: el_kzkf8elbS1_jYED6fCJ3_Animation;animation-name: el_kzkf8elbS1_jYED6fCJ3_Animation;-webkit-transform-origin: 50% 50%;transform-origin: 50% 50%;transform-box: fill-box;-webkit-transform: scale(2.5, 2.5);transform: scale(2.5, 2.5);-webkit-animation-timing-function: cubic-bezier(0.42, 0, 1, 1);animation-timing-function: cubic-bezier(0.42, 0, 1, 1);}#el_oL3e-9hZOaq_BbUEVjPuE{-webkit-transform-origin: 50% 0%;transform-origin: 50% 0%;transform-box: fill-box;-webkit-transform: scale(1, 0);transform: scale(1, 0);-webkit-animation-name: el_oL3e-9hZOaq_BbUEVjPuE_Animation;animation-name: el_oL3e-9hZOaq_BbUEVjPuE_Animation;}#el_Caz6OAMVcZ_sl4lk5FlH{-webkit-animation-name: el_Caz6OAMVcZ_sl4lk5FlH_Animation;animation-name: el_Caz6OAMVcZ_sl4lk5FlH_Animation;-webkit-transform-origin: 50% 100%;transform-origin: 50% 100%;transform-box: fill-box;-webkit-transform: scale(1, 1);transform: scale(1, 1);}#el_as9CsOHGsXm_SGeioqXmz{-webkit-transform-origin: 50% 50%;transform-origin: 50% 50%;transform-box: fill-box;-webkit-transform: scale(0, 0);transform: scale(0, 0);-webkit-animation-name: el_as9CsOHGsXm_SGeioqXmz_Animation;animation-name: el_as9CsOHGsXm_SGeioqXmz_Animation;-webkit-animation-timing-function: cubic-bezier(0.42, 0, 0.58, 1);animation-timing-function: cubic-bezier(0.42, 0, 0.58, 1);}</style>
    <!-- Generator: Sketch 51.3 (57544) - http://www.bohemiancoding.com/sketch -->
    <title>Artboard</title>
    <desc>Created with Sketch.</desc>
    <defs>
        <rect id="path-1" x="0" y="0" width="110" height="77" rx="6"/>
    </defs>
    <g id="el_U6JFxvOKQt" fill-rule="evenodd">
        <rect id="el_doouHLqcsM" x="85" y="131" width="131" height="89"/>
        <g id="el_4mUAxj5HdX">
            <polygon id="el_8jfsSN4gss" points="0 0 70 47.9248826 70 88 0 88"/>
            <polygon id="el_J7FISV3AKE" points="131 0 131 88 61 88 61 47.9248826"/>
            <path d="M2,87 L41.337912,45.3942235 C47.6111021,38.7593786 56.3392579,35 65.4701987,35 L65.4701987,35 C74.6119768,35 83.3616021,38.7135153 89.7126266,45.2889694 L130,87 L2,87 Z" id="el_P0Gq13Ivfj"/>
        </g>
        <g id="el_Caz6OAMVcZ_sl4lk5FlH" data-animator-group="true" data-animator-type="2"><path d="M84,131.59205 L134.907772,85.9443013 C143.746795,78.0185662 157.253205,78.0185662 166.092228,85.9443013 L217,131.59205 L84,131.59205 Z" id="el_Caz6OAMVcZ"/></g>
        <g id="el_kzkf8elbS1_tbC0PXuvl" data-animator-group="true" data-animator-type="0"><g id="el_kzkf8elbS1_jYED6fCJ3" data-animator-group="true" data-animator-type="2"><g id="el_kzkf8elbS1">
            <mask id="mask-2" fill="white">
                <use xlink:href="#path-1"/>
            </mask>
            <use id="el_y7pRpzInNm" xlink:href="#path-1"/>
            <rect mask="url(#mask-2)" x="-9.0234375" y="-7.2320442" width="125.898437" height="17.8674033" id="el_AgNNoXk_V9"/>
            <ellipse id="el_qAwa71iNt6q" mask="url(#mask-2)" cx="7.51953125" cy="5.31767956" rx="2.36328125" ry="2.33977901"/>
            <ellipse id="el_LFSHOh14zFN" mask="url(#mask-2)" cx="14.8242187" cy="5.31767956" rx="2.36328125" ry="2.33977901"/>
            <ellipse id="el_prcUsRYhDlg" mask="url(#mask-2)" cx="22.1289062" cy="5.31767956" rx="2.36328125" ry="2.33977901"/>
            <path d="M59.902151,49.4280636 C58.2005541,48.0090288 55.6698945,48.2642727 54.1080272,49.8413157 L53.4963218,50.4581552 L52.8846163,49.8413157 C51.3258542,48.2642727 48.7920895,48.0090288 47.0904926,49.4280636 C45.1404874,51.0567631 45.0380189,53.979914 46.7830873,55.7453513 L52.7914632,61.8165109 C53.1796012,62.2084927 53.8099373,62.2084927 54.1980752,61.8165109 L60.2064512,55.7453513 C61.9546246,53.979914 61.8521562,51.0567631 59.902151,49.4280636 Z" id="el_9zXv2q4E3T9" fill-rule="nonzero" mask="url(#mask-2)"/>
            <path d="M22.2079688,35.1911271 C22.0667441,35.9149023 21.7323789,36.4988486 21.2048633,36.9429834 C20.6773476,37.3871182 19.9733117,37.6091823 19.0927344,37.6091823 C18.635831,37.6091823 18.2100866,37.5392733 17.8154883,37.399453 C17.42089,37.2596328 17.0782176,37.0581302 16.7874609,36.7949392 C16.4967043,36.5317482 16.268256,36.2068767 16.1021094,35.8203149 C15.9359627,35.4337531 15.8528906,34.9937373 15.8528906,34.5002541 L15.8528906,34.3522099 C15.8528906,33.8587268 15.9359627,33.4145987 16.1021094,33.0198122 C16.268256,32.6250257 16.4987811,32.2878172 16.7936914,32.0081768 C17.0886017,31.7285364 17.4333509,31.5146969 17.8279492,31.3666519 C18.2225475,31.218607 18.6441384,31.1445856 19.0927344,31.1445856 C19.956697,31.1445856 20.6565794,31.3666497 21.1924023,31.8107845 C21.7282253,32.2549193 22.0667441,32.8388656 22.2079688,33.5626409 L20.6628125,33.9574254 C20.6129685,33.5955378 20.4551315,33.2830032 20.1892969,33.0198122 C19.9234622,32.7566212 19.5496378,32.6250276 19.0678125,32.6250276 C18.8435145,32.6250276 18.6316807,32.6661506 18.4323047,32.7483978 C18.2329287,32.830645 18.0584773,32.9478455 17.9089453,33.1000028 C17.7594133,33.2521601 17.6410356,33.4372135 17.5538086,33.6551685 C17.4665816,33.8731236 17.4229688,34.1178053 17.4229688,34.389221 L17.4229688,34.4632431 C17.4229688,34.7346588 17.4665816,34.9752282 17.5538086,35.1849586 C17.6410356,35.3946889 17.7594133,35.5694615 17.9089453,35.7092818 C18.0584773,35.849102 18.2329287,35.9539656 18.4323047,36.0238757 C18.6316807,36.0937858 18.8435145,36.1287403 19.0678125,36.1287403 C19.5496378,36.1287403 19.9172318,36.0094837 20.1706055,35.7709669 C20.4239791,35.53245 20.5880465,35.2116908 20.6628125,34.8086796 L22.2079688,35.1911271 Z M29.8589844,34.4509061 C29.8589844,34.9608386 29.7717587,35.4111352 29.5973047,35.8018094 C29.4228507,36.1924835 29.1860952,36.5214674 28.8870313,36.7887707 C28.5879673,37.0560741 28.2452949,37.2596328 27.8590039,37.399453 C27.4727129,37.5392733 27.0677365,37.6091823 26.6440625,37.6091823 C26.2203885,37.6091823 25.8154121,37.5392733 25.4291211,37.399453 C25.0428301,37.2596328 24.7001577,37.0560741 24.4010938,36.7887707 C24.1020298,36.5214674 23.8652743,36.1924835 23.6908203,35.8018094 C23.5163663,35.4111352 23.4291406,34.9608386 23.4291406,34.4509061 L23.4291406,34.3028619 C23.4291406,33.801154 23.5163663,33.3549697 23.6908203,32.9642956 C23.8652743,32.5736214 24.1020298,32.2425815 24.4010938,31.9711657 C24.7001577,31.69975 25.0428301,31.4941351 25.4291211,31.3543149 C25.8154121,31.2144947 26.2203885,31.1445856 26.6440625,31.1445856 C27.0677365,31.1445856 27.4727129,31.2144947 27.8590039,31.3543149 C28.2452949,31.4941351 28.5879673,31.69975 28.8870313,31.9711657 C29.1860952,32.2425815 29.4228507,32.5736214 29.5973047,32.9642956 C29.7717587,33.3549697 29.8589844,33.801154 29.8589844,34.3028619 L29.8589844,34.4509061 Z M26.6440625,36.1287403 C26.8683605,36.1287403 27.0801943,36.0917297 27.2795703,36.0177072 C27.4789463,35.9436847 27.6533977,35.836765 27.8029297,35.6969448 C27.9524617,35.5571245 28.0708394,35.3864642 28.1580664,35.1849586 C28.2452934,34.983453 28.2889063,34.7552204 28.2889063,34.5002541 L28.2889063,34.2535138 C28.2889063,33.9985475 28.2452934,33.770315 28.1580664,33.5688094 C28.0708394,33.3673038 27.9524617,33.1966434 27.8029297,33.0568232 C27.6533977,32.917003 27.4789463,32.8100832 27.2795703,32.7360608 C27.0801943,32.6620383 26.8683605,32.6250276 26.6440625,32.6250276 C26.4197645,32.6250276 26.2079307,32.6620383 26.0085547,32.7360608 C25.8091787,32.8100832 25.6347273,32.917003 25.4851953,33.0568232 C25.3356633,33.1966434 25.2172856,33.3673038 25.1300586,33.5688094 C25.0428316,33.770315 24.9992188,33.9985475 24.9992188,34.2535138 L24.9992188,34.5002541 C24.9992188,34.7552204 25.0428316,34.983453 25.1300586,35.1849586 C25.2172856,35.3864642 25.3356633,35.5571245 25.4851953,35.6969448 C25.6347273,35.836765 25.8091787,35.9436847 26.0085547,36.0177072 C26.2079307,36.0917297 26.4197645,36.1287403 26.6440625,36.1287403 Z M32.9991406,37.4364641 L31.4290625,37.4364641 L31.4290625,31.3173039 L32.9991406,31.3173039 L32.9991406,32.2302431 L33.2234375,32.2302431 C33.3646622,31.8848049 33.5931104,31.6175055 33.9087891,31.428337 C34.2244677,31.2391685 34.5941385,31.1445856 35.0178125,31.1445856 C35.3168765,31.1445856 35.5972448,31.1918771 35.8589258,31.2864613 C36.1206068,31.3810456 36.3511318,31.5270322 36.5505078,31.7244254 C36.7498838,31.9218187 36.905644,32.1726688 37.017793,32.4769834 C37.129942,32.781298 37.1860156,33.1431802 37.1860156,33.5626409 L37.1860156,37.4364641 L35.6159375,37.4364641 L35.6159375,33.9574254 C35.6159375,33.5215153 35.5100206,33.1781385 35.2981836,32.9272845 C35.0863466,32.6764306 34.7810567,32.5510055 34.3823047,32.5510055 C33.917094,32.5510055 33.5702681,32.7052167 33.3418164,33.0136436 C33.1133647,33.3220706 32.9991406,33.7353565 32.9991406,34.2535138 L32.9991406,37.4364641 Z M38.8807031,31.3173039 L40.7124609,31.3173039 L40.7124609,28.8005525 L42.2825391,28.8005525 L42.2825391,31.3173039 L44.5130469,31.3173039 L44.5130469,32.7977459 L42.2825391,32.7977459 L42.2825391,35.5859116 C42.2825391,35.8326532 42.3946864,35.9560221 42.6189844,35.9560221 L44.28875,35.9560221 L44.28875,37.4364641 L41.6719531,37.4364641 C41.3895038,37.4364641 41.1589788,37.3459935 40.9803711,37.1650497 C40.8017634,36.9841059 40.7124609,36.7538172 40.7124609,36.4741768 L40.7124609,32.7977459 L38.8807031,32.7977459 L38.8807031,31.3173039 Z M50.6812109,36.5481989 C50.5150643,36.9347607 50.2824624,37.2082285 49.9833984,37.3686105 C49.6843344,37.5289925 49.3354317,37.6091823 48.9366797,37.6091823 C48.5628497,37.6091823 48.2118701,37.5392733 47.8837305,37.399453 C47.5555908,37.2596328 47.2669153,37.0540179 47.0176953,36.7826022 C46.7684753,36.5111865 46.5711791,36.1822027 46.4258008,35.7956409 C46.2804225,35.4090791 46.2077344,34.9690632 46.2077344,34.4755801 L46.2077344,34.2781878 C46.2077344,33.7929294 46.2783456,33.3570259 46.4195703,32.9704641 C46.560795,32.5839023 46.7518608,32.2549185 46.9927734,31.9835028 C47.2336861,31.712087 47.5140544,31.504416 47.8338867,31.3604834 C48.153719,31.2165508 48.4963914,31.1445856 48.8619141,31.1445856 C49.3022027,31.1445856 49.6573359,31.218607 49.9273242,31.3666519 C50.1973125,31.5146969 50.4112232,31.7449855 50.5690625,32.0575249 L50.7933594,32.0575249 L50.7933594,31.3173039 L52.3634375,31.3173039 L52.3634375,35.5859116 C52.3634375,35.8326532 52.4755848,35.9560221 52.6998828,35.9560221 L52.9366406,35.9560221 L52.9366406,37.4364641 L51.865,37.4364641 C51.5825507,37.4364641 51.3520256,37.3542181 51.173418,37.1897238 C50.9948103,37.0252294 50.9055078,36.8113899 50.9055078,36.5481989 L50.6812109,36.5481989 Z M49.2855859,36.1287403 C49.7424893,36.1287403 50.1080064,35.9786415 50.3821484,35.6784392 C50.6562904,35.378237 50.7933594,34.9690634 50.7933594,34.4509061 L50.7933594,34.3028619 C50.7933594,33.7847046 50.6562904,33.375531 50.3821484,33.0753287 C50.1080064,32.7751265 49.7424893,32.6250276 49.2855859,32.6250276 C48.8286826,32.6250276 48.4631654,32.7751265 48.1890234,33.0753287 C47.9148814,33.375531 47.7778125,33.7847046 47.7778125,34.3028619 L47.7778125,34.4509061 C47.7778125,34.9690634 47.9148814,35.378237 48.1890234,35.6784392 C48.4631654,35.9786415 48.8286826,36.1287403 49.2855859,36.1287403 Z M60.3384375,35.1911271 C60.1972128,35.9149023 59.8628477,36.4988486 59.335332,36.9429834 C58.8078164,37.3871182 58.1037804,37.6091823 57.2232031,37.6091823 C56.7662998,37.6091823 56.3405554,37.5392733 55.945957,37.399453 C55.5513587,37.2596328 55.2086863,37.0581302 54.9179297,36.7949392 C54.627173,36.5317482 54.3987248,36.2068767 54.2325781,35.8203149 C54.0664315,35.4337531 53.9833594,34.9937373 53.9833594,34.5002541 L53.9833594,34.3522099 C53.9833594,33.8587268 54.0664315,33.4145987 54.2325781,33.0198122 C54.3987248,32.6250257 54.6292498,32.2878172 54.9241602,32.0081768 C55.2190705,31.7285364 55.5638196,31.5146969 55.958418,31.3666519 C56.3530163,31.218607 56.7746071,31.1445856 57.2232031,31.1445856 C58.0871658,31.1445856 58.7870481,31.3666497 59.3228711,31.8107845 C59.8586941,32.2549193 60.1972128,32.8388656 60.3384375,33.5626409 L58.7932812,33.9574254 C58.7434373,33.5955378 58.5856003,33.2830032 58.3197656,33.0198122 C58.053931,32.7566212 57.6801066,32.6250276 57.1982812,32.6250276 C56.9739833,32.6250276 56.7621494,32.6661506 56.5627734,32.7483978 C56.3633974,32.830645 56.1889461,32.9478455 56.0394141,33.1000028 C55.8898821,33.2521601 55.7715043,33.4372135 55.6842773,33.6551685 C55.5970503,33.8731236 55.5534375,34.1178053 55.5534375,34.389221 L55.5534375,34.4632431 C55.5534375,34.7346588 55.5970503,34.9752282 55.6842773,35.1849586 C55.7715043,35.3946889 55.8898821,35.5694615 56.0394141,35.7092818 C56.1889461,35.849102 56.3633974,35.9539656 56.5627734,36.0238757 C56.7621494,36.0937858 56.9739833,36.1287403 57.1982812,36.1287403 C57.6801066,36.1287403 58.0477006,36.0094837 58.3010742,35.7709669 C58.5544479,35.53245 58.7185153,35.2116908 58.7932812,34.8086796 L60.3384375,35.1911271 Z M61.7589844,31.3173039 L63.5907422,31.3173039 L63.5907422,28.8005525 L65.1608203,28.8005525 L65.1608203,31.3173039 L67.3913281,31.3173039 L67.3913281,32.7977459 L65.1608203,32.7977459 L65.1608203,35.5859116 C65.1608203,35.8326532 65.2729676,35.9560221 65.4972656,35.9560221 L67.1670312,35.9560221 L67.1670312,37.4364641 L64.5502344,37.4364641 C64.267785,37.4364641 64.03726,37.3459935 63.8586523,37.1650497 C63.6800447,36.9841059 63.5907422,36.7538172 63.5907422,36.4741768 L63.5907422,32.7977459 L61.7589844,32.7977459 L61.7589844,31.3173039 Z M83.3911719,37.4364641 L81.8210937,37.4364641 L81.8210937,33.1431823 C81.8210937,32.9704632 81.7774809,32.8409258 81.6902539,32.7545663 C81.6030269,32.6682068 81.4888028,32.6250276 81.3475781,32.6250276 C81.1814315,32.6250276 81.0505929,32.6743752 80.9550586,32.7730718 C80.8595243,32.8717684 80.8117578,33.0198112 80.8117578,33.2172044 L80.8117578,37.4364641 L79.2416797,37.4364641 L79.2416797,33.1431823 C79.2416797,32.9704632 79.1939132,32.8409258 79.0983789,32.7545663 C79.0028446,32.6682068 78.8886205,32.6250276 78.7557031,32.6250276 C78.6061711,32.6250276 78.481563,32.6743752 78.381875,32.7730718 C78.282187,32.8717684 78.2323437,33.0198112 78.2323437,33.2172044 L78.2323437,37.4364641 L76.6622656,37.4364641 L76.6622656,31.3173039 L78.2323437,31.3173039 L78.2323437,31.9094807 L78.4566406,31.9094807 C78.5064846,31.6874133 78.6207087,31.504416 78.7993164,31.3604834 C78.9779241,31.2165508 79.2126027,31.1445856 79.5033594,31.1445856 C79.7775014,31.1445856 80.0101032,31.2165508 80.2011719,31.3604834 C80.3922405,31.504416 80.5210023,31.6874133 80.5874609,31.9094807 L80.8117578,31.9094807 C80.8782165,31.6874133 81.0173622,31.504416 81.2291992,31.3604834 C81.4410362,31.2165508 81.7047901,31.1445856 82.0204687,31.1445856 C82.4358354,31.1445856 82.7681238,31.2823476 83.0173437,31.5578757 C83.2665637,31.8334038 83.3911719,32.2137913 83.3911719,32.6990497 L83.3911719,37.4364641 Z M86.1948828,34.8827017 C86.2031901,35.0636455 86.246803,35.2301935 86.3257227,35.3823508 C86.4046423,35.5345081 86.512636,35.6661017 86.649707,35.7771354 C86.786778,35.8881691 86.944615,35.9745273 87.1232227,36.0362127 C87.3018303,36.0978981 87.4908193,36.1287403 87.6901953,36.1287403 C88.08064,36.1287403 88.3796995,36.0608874 88.5873828,35.9251796 C88.7950661,35.7894717 88.9445959,35.6270359 89.0359766,35.4378674 L90.3817578,36.1780884 C90.3069918,36.3343581 90.2031517,36.4967938 90.0702344,36.6654006 C89.937317,36.8340073 89.7649425,36.9882185 89.5531055,37.1280387 C89.3412685,37.2678589 89.083745,37.3830032 88.7805273,37.4734751 C88.4773097,37.563947 88.1221765,37.6091823 87.7151172,37.6091823 C87.2499065,37.6091823 86.8262389,37.535161 86.4441016,37.387116 C86.0619642,37.2390711 85.7317527,37.0252316 85.453457,36.7455912 C85.1751614,36.4659507 84.9591739,36.12463 84.8054883,35.7216188 C84.6518026,35.3186076 84.5749609,34.8621425 84.5749609,34.3522099 L84.5749609,34.2781878 C84.5749609,33.8093789 84.6559562,33.3816999 84.8179492,32.9951381 C84.9799422,32.6085763 85.20216,32.2795925 85.4846094,32.0081768 C85.7670587,31.7367611 86.0972702,31.5249777 86.4752539,31.3728204 C86.8532376,31.2206631 87.258214,31.1445856 87.6901953,31.1445856 C88.2218646,31.1445856 88.6787611,31.2371123 89.0608984,31.4221685 C89.4430358,31.6072247 89.7587097,31.8416257 90.0079297,32.1253785 C90.2571497,32.4091313 90.4399083,32.7216659 90.5562109,33.0629917 C90.6725136,33.4043175 90.7306641,33.7353575 90.7306641,34.0561215 L90.7306641,34.8827017 L86.1948828,34.8827017 Z M87.6777344,32.5510055 C87.2789824,32.5510055 86.9550012,32.6517568 86.7057812,32.8532624 C86.4565613,33.054768 86.2945707,33.2871129 86.2198047,33.5503039 L89.1356641,33.5503039 C89.0858201,33.2624387 88.9300599,33.0239254 88.6683789,32.8347569 C88.4066979,32.6455884 88.0764864,32.5510055 87.6777344,32.5510055 Z M96.1013281,28.8005525 L96.1013281,34.8210166 L94.4564844,34.8210166 L94.4564844,28.8005525 L96.1013281,28.8005525 Z M96.4626953,36.4371657 C96.4626953,36.6016601 96.4315433,36.7558713 96.3692383,36.8998039 C96.3069333,37.0437364 96.2217844,37.1671054 96.1137891,37.2699144 C96.0057937,37.3727234 95.8791088,37.4549693 95.7337305,37.5166547 C95.5883521,37.5783401 95.4367456,37.6091823 95.2789062,37.6091823 C95.1127596,37.6091823 94.9590762,37.5783401 94.8178516,37.5166547 C94.6766269,37.4549693 94.5520188,37.3727234 94.4440234,37.2699144 C94.3360281,37.1671054 94.2508792,37.0437364 94.1885742,36.8998039 C94.1262692,36.7558713 94.0951172,36.6016601 94.0951172,36.4371657 C94.0951172,36.2726714 94.1262692,36.1184602 94.1885742,35.9745276 C94.2508792,35.830595 94.3360281,35.7072261 94.4440234,35.6044171 C94.5520188,35.5016081 94.6766269,35.4193622 94.8178516,35.3576768 C94.9590762,35.2959914 95.1127596,35.2651492 95.2789062,35.2651492 C95.4367456,35.2651492 95.5883521,35.2959914 95.7337305,35.3576768 C95.8791088,35.4193622 96.0057937,35.5016081 96.1137891,35.6044171 C96.2217844,35.7072261 96.3069333,35.830595 96.3692383,35.9745276 C96.4315433,36.1184602 96.4626953,36.2726714 96.4626953,36.4371657 Z" id="el_trE6X5mE3-_" mask="url(#mask-2)"/>
        </g></g></g>
        <g id="el_Hrccbob07q6">
            <polygon id="el_Se_iQJXCgV_" points="0 0 70 47.9248826 70 88 0 88"/>
            <polygon id="el_4Hy2pZrIzVp" points="131 0 131 88 61 88 61 47.9248826"/>
            <path d="M2,87 L41.337912,45.3942235 C47.6111021,38.7593786 56.3392579,35 65.4701987,35 L65.4701987,35 C74.6119768,35 83.3616021,38.7135153 89.7126266,45.2889694 L130,87 L2,87 Z" id="el_OoTYu10BHlE"/>
        </g>
        <g id="el_oL3e-9hZOaq_BbUEVjPuE" data-animator-group="true" data-animator-type="2"><path d="M85,131.28661 L136.498178,177.358774 C144.470358,184.49098 156.529642,184.49098 164.501822,177.358774 L216,131.28661" id="el_oL3e-9hZOaq"/></g>
        <g id="el_as9CsOHGsXm_SGeioqXmz" data-animator-group="true" data-animator-type="2"><g id="el_as9CsOHGsXm" fill-rule="nonzero">
            <path d="M42.4380051,2.73505699 C37.4076331,-1.43450956 29.9263318,-0.684523282 25.3090378,3.94932048 L23.5006741,5.76178731 L21.6923105,3.94932048 C17.084196,-0.684523282 9.59371511,-1.43450956 4.56334314,2.73505699 C-1.2013897,7.5206837 -1.50431356,16.1098122 3.65457156,21.2972173 L21.4169251,39.1361765 C22.564364,40.2879412 24.4278047,40.2879412 25.5752436,39.1361765 L43.3375972,21.2972173 C48.5056618,16.1098122 48.2027379,7.5206837 42.4380051,2.73505699 Z" id="el_zARx56XT5do"/>
        </g></g>
    </g>
<script>(function(){var a=document.querySelector('#el_i-i8FnTzUe'),b=a.querySelectorAll('style'),c=function(d){b.forEach(function(f){var g=f.textContent;g&amp;&amp;(f.textContent=g.replace(/transform-box:[^;\r\n]*/gi,'transform-box: '+d))})};c('initial'),window.requestAnimationFrame(function(){return c('fill-box')})})();</script></svg>