<?xml version="1.0" encoding="UTF-8"?>
<svg width="798px" height="673px" viewBox="0 0 798 673" version="1.1" xmlns="http://www.w3.org/2000/svg" xmlns:xlink="http://www.w3.org/1999/xlink">
    <!-- Generator: Sketch 51.3 (57544) - http://www.bohemiancoding.com/sketch -->
    <title>Artboard</title>
    <desc>Created with Sketch.</desc>
    <defs>
        <rect id="path-1" x="0" y="0" width="256" height="181" rx="16"></rect>
    </defs>
    <g id="Artboard" stroke="none" stroke-width="1" fill="none" fill-rule="evenodd">
        <rect id="Rectangle" fill="#F6F6B4" x="247" y="292" width="306" height="210"></rect>
        <path d="M244,172 L362.657213,279.970361 C383.259448,298.717057 414.740552,298.717057 435.342787,279.970361 L554,172" id="Path-2" fill="#F6F6B4" transform="translate(399.000000, 233.000000) scale(1, -1) translate(-399.000000, -233.000000) "></path>
        <g id="Rectangle-3" transform="translate(272.000000, 212.000000)">
            <mask id="mask-2" fill="white">
                <use xlink:href="#path-1"></use>
            </mask>
            <use id="Mask" fill="#FFE8F8" xlink:href="#path-1"></use>
            <rect fill="#FFA3E5" mask="url(#mask-2)" x="-21" y="-17" width="293" height="42"></rect>
            <circle id="Oval" fill="#FFCAF0" mask="url(#mask-2)" cx="17.5" cy="12.5" r="5.5"></circle>
            <circle id="Oval" fill="#FFFFB6" mask="url(#mask-2)" cx="34.5" cy="12.5" r="5.5"></circle>
            <circle id="Oval" fill="#C3FFFF" mask="url(#mask-2)" cx="51.5" cy="12.5" r="5.5"></circle>
            <path d="M139.408642,116.188046 C135.448562,112.852392 129.559027,113.452381 125.924136,117.159456 L124.500531,118.60943 L123.076925,117.159456 C119.449261,113.452381 113.552499,112.852392 109.592419,116.188046 C105.054225,120.016547 104.815753,126.88785 108.877003,131.037774 L122.860133,145.308941 C123.763435,146.230353 125.230399,146.230353 126.133702,145.308941 L140.116832,131.037774 C144.185308,126.88785 143.946836,120.016547 139.408642,116.188046 Z" id="Shape" fill="#FF69D5" fill-rule="nonzero" mask="url(#mask-2)"></path>
            <text id="contact-me!" mask="url(#mask-2)" font-family="SpaceMono-Bold, Space Mono" font-size="29" font-weight="bold" fill="#FF69D5">
                <tspan x="35.386" y="88">contact me! </tspan>
            </text>
        </g>
        <polygon id="Path-4" fill="#FFFFD2" points="247 294 411 406.732394 411 501 247 501"></polygon>
        <polygon id="Path-4" fill="#FFFFD2" transform="translate(471.000000, 397.500000) scale(-1, 1) translate(-471.000000, -397.500000) " points="389 294 553 406.732394 553 501 389 501"></polygon>
        <path d="M251,502 L343.58525,402.036546 C357.779285,386.711375 377.721481,378 398.610029,378 L400.388757,378 C420.999905,378 440.702678,386.482279 454.868283,401.454087 L550,502 L251,502 Z" id="Path-3" fill="#FFFFEE"></path>
        <path d="M247,294 L365.688978,391.661861 C385.622632,408.064039 414.377368,408.064039 434.311022,391.661861 L553,294" id="Path-2" fill="#FFFFF6"></path>
        <g id="heart-solid" transform="translate(345.000000, 345.000000)" fill="#FF69D5" fill-rule="nonzero">
            <path d="M99.3229907,6.49576036 C87.5497797,-3.4069602 70.0403509,-1.6257428 59.2339182,9.37963615 L55.0015777,13.6842449 L50.7692373,9.37963615 C39.9842885,-1.6257428 22.4533758,-3.4069602 10.6801648,6.49576036 C-2.81176313,17.8616238 -3.52073387,38.260804 8.55325259,50.580891 L50.1247184,92.9484192 C52.8102136,95.6838603 57.1714579,95.6838603 59.8569531,92.9484192 L101.428419,50.580891 C113.523889,38.260804 112.814919,17.8616238 99.3229907,6.49576036 Z" id="Shape"></path>
        </g>
    </g>
</svg>