<?xml version="1.0" encoding="UTF-8"?>
<svg width="1229px" height="589px" viewBox="0 0 1229 589" version="1.1" xmlns="http://www.w3.org/2000/svg" xmlns:xlink="http://www.w3.org/1999/xlink">
    <!-- Generator: Sketch 51.3 (57544) - http://www.bohemiancoding.com/sketch -->
    <title>Artboard Copy</title>
    <desc>Created with Sketch.</desc>
    <defs></defs>
    <g id="Artboard-Copy" stroke="none" stroke-width="1" fill="none" fill-rule="evenodd">
        <polyline id="Path-5" points="0 192.015339 1229 192.015339 1229 611.960505 0 611.960505"></polyline>
        <path d="M335.984486,508.572699 C318.32467,493.979217 292.060526,496.604169 275.850877,512.822622 L269.502367,519.166256 L263.153856,512.822622 C246.976433,496.604169 220.680064,493.979217 203.020247,508.572699 C182.782355,525.322393 181.718899,555.384343 199.829879,573.54026 L262.187078,635.976618 C266.21532,640.007794 272.757187,640.007794 276.78543,635.976618 L339.142628,573.54026 C357.285834,555.384343 356.222378,525.322393 335.984486,508.572699 Z" id="Shape" fill-opacity="0.162732111" fill="#FF32C5" fill-rule="nonzero" style="mix-blend-mode: multiply;"></path>
        <path d="M118.020387,415.393175 C113.632191,411.744804 107.105949,412.401042 103.078097,416.455655 L101.500588,418.041564 L99.9230794,416.455655 C95.9032348,412.401042 89.3689855,411.744804 84.9807887,415.393175 C79.9519792,419.580598 79.6877265,427.096086 84.1880305,431.635065 L99.6828496,447.244154 C100.683807,448.251949 102.309362,448.251949 103.310319,447.244154 L118.805138,431.635065 C123.31345,427.096086 123.049197,419.580598 118.020387,415.393175 Z" id="Shape" fill-opacity="0.349807518" fill="#FF32C5" fill-rule="nonzero" style="mix-blend-mode: multiply;"></path>
        <path d="M1048.02039,370.393175 C1043.63219,366.744804 1037.10595,367.401042 1033.0781,371.455655 L1031.50059,373.041564 L1029.92308,371.455655 C1025.90323,367.401042 1019.36899,366.744804 1014.98079,370.393175 C1009.95198,374.580598 1009.68773,382.096086 1014.18803,386.635065 L1029.68285,402.244154 C1030.68381,403.251949 1032.30936,403.251949 1033.31032,402.244154 L1048.80514,386.635065 C1053.31345,382.096086 1053.0492,374.580598 1048.02039,370.393175 Z" id="Shape" fill-opacity="0.349807518" fill="#FF32C5" fill-rule="nonzero" style="mix-blend-mode: multiply;"></path>
        <path d="M1073.90537,511.017125 C1062.77434,501.844079 1046.21997,503.494049 1036.00298,513.688505 L1032.00149,517.675932 L1028.00001,513.688505 C1017.80333,503.494049 1001.22865,501.844079 990.09761,511.017125 C977.341606,521.545504 976.671306,540.441587 988.086712,551.853878 L1027.39064,591.099588 C1029.92966,593.633471 1034.05301,593.633471 1036.59203,591.099588 L1075.89596,551.853878 C1087.33168,540.441587 1086.66138,521.545504 1073.90537,511.017125 Z" id="Shape" fill-opacity="0.162732111" fill="#FF32C5" fill-rule="nonzero" style="mix-blend-mode: multiply;"></path>
        <path d="M1196.07911,345.555574 C1189.55033,340.135138 1179.84056,341.11012 1173.8479,347.134117 L1171.50087,349.490324 L1169.15385,347.134117 C1163.17311,341.11012 1153.45142,340.135138 1146.92264,345.555574 C1139.44075,351.776889 1139.04759,362.942756 1145.74317,369.686382 L1168.79643,392.877029 C1170.28566,394.374324 1172.70417,394.374324 1174.1934,392.877029 L1197.24667,369.686382 C1203.95416,362.942756 1203.561,351.776889 1196.07911,345.555574 Z" id="Shape" fill-opacity="0.788836051" fill="#FFFF8A" fill-rule="nonzero" style="mix-blend-mode: multiply;"></path>
        <circle id="Oval" fill-opacity="0.467249774" fill="#FFFF8A" cx="12" cy="364" r="30"></circle>
        <circle id="Oval" fill-opacity="0.641106205" fill="#FFFF8A" cx="1178" cy="554" r="73"></circle>
        <circle id="Oval" fill-opacity="0.467249774" fill="#FFFF8A" cx="930.5" cy="483.5" r="8.5"></circle>
        <circle id="Oval" fill-opacity="0.577247509" fill="#22FFFF" cx="1009.5" cy="571.5" r="8.5"></circle>
        <path d="M1225.47224,395.247943 C1197.32356,372.002609 1155.46011,376.183783 1129.62291,402.017462 L1119.50377,412.121964 L1109.38463,402.017462 C1083.5988,376.183783 1041.68398,372.002609 1013.5353,395.247943 C981.27733,421.927812 979.582245,469.812203 1008.45005,498.731986 L1107.84364,598.184184 C1114.26442,604.605272 1124.69176,604.605272 1131.11253,598.184184 L1230.50613,498.731986 C1259.4253,469.812203 1257.73021,421.927812 1225.47224,395.247943 Z" id="Shape" fill-opacity="0.168223505" fill="#00FFFF" fill-rule="nonzero" style="mix-blend-mode: multiply;"></path>
        <path d="M258.643545,456.769266 C246.121129,446.449589 227.497464,448.305805 216.003349,459.774568 L211.501678,464.260424 L207.000007,459.774568 C195.528743,448.305805 176.882227,446.449589 164.359812,456.769266 C150.009306,468.613692 149.255219,489.871785 162.09755,502.710613 L206.314473,546.862037 C209.170864,549.712654 213.809642,549.712654 216.666032,546.862037 L260.882955,502.710613 C273.748137,489.871785 272.99405,468.613692 258.643545,456.769266 Z" id="Shape" fill-opacity="0.310348732" fill="#00FFFF" fill-rule="nonzero" style="mix-blend-mode: multiply;"></path>
        <circle id="Oval-2" fill-opacity="0.404834692" fill="#FFFF74" style="mix-blend-mode: multiply;" cx="101.5" cy="540.5" r="110.5"></circle>
    </g>
</svg>