<?xml version="1.0" encoding="UTF-8"?>
<svg width="161px" height="122px" viewBox="0 0 161 122" version="1.1" xmlns="http://www.w3.org/2000/svg" xmlns:xlink="http://www.w3.org/1999/xlink">
    <!-- Generator: Sketch 51.3 (57544) - http://www.bohemiancoding.com/sketch -->
    <title>Artboard</title>
    <desc>Created with Sketch.</desc>
    <defs>
        <path d="M14,17 L145,17 L145,102 C145,104.209139 143.209139,106 141,106 L18,106 C15.790861,106 14,104.209139 14,102 L14,17 Z" id="path-1"></path>
        <filter x="-5.3%" y="-5.6%" width="110.7%" height="115.7%" filterUnits="objectBoundingBox" id="filter-2">
            <feOffset dx="0" dy="2" in="SourceAlpha" result="shadowOffsetOuter1"></feOffset>
            <feGaussianBlur stdDeviation="2" in="shadowOffsetOuter1" result="shadowBlurOuter1"></feGaussianBlur>
            <feColorMatrix values="0 0 0 0 0   0 0 0 0 0   0 0 0 0 0  0 0 0 0.119423687 0" type="matrix" in="shadowBlurOuter1"></feColorMatrix>
        </filter>
        <path d="M2,88 L41.337912,46.3942235 C47.6111021,39.7593786 56.3392579,36 65.4701987,36 L65.4701987,36 C74.6119768,36 83.3616021,39.7135153 89.7126266,46.2889694 L130,88 L2,88 Z" id="path-3"></path>
        <filter x="-4.3%" y="-14.4%" width="108.6%" height="121.2%" filterUnits="objectBoundingBox" id="filter-4">
            <feOffset dx="0" dy="-2" in="SourceAlpha" result="shadowOffsetOuter1"></feOffset>
            <feGaussianBlur stdDeviation="1.5" in="shadowOffsetOuter1" result="shadowBlurOuter1"></feGaussianBlur>
            <feColorMatrix values="0 0 0 0 0   0 0 0 0 0   0 0 0 0 0  0 0 0 0.0333446558 0" type="matrix" in="shadowBlurOuter1"></feColorMatrix>
        </filter>
        <path d="M14,16 L65.5622489,61.7515246 C73.514508,68.8076167 85.485492,68.8076167 93.4377511,61.7515246 L145,16" id="path-5"></path>
        <filter x="-5.3%" y="-9.8%" width="110.7%" height="127.5%" filterUnits="objectBoundingBox" id="filter-6">
            <feOffset dx="0" dy="2" in="SourceAlpha" result="shadowOffsetOuter1"></feOffset>
            <feGaussianBlur stdDeviation="2" in="shadowOffsetOuter1" result="shadowBlurOuter1"></feGaussianBlur>
            <feColorMatrix values="0 0 0 0 0   0 0 0 0 0   0 0 0 0 0  0 0 0 0.0981657609 0" type="matrix" in="shadowBlurOuter1"></feColorMatrix>
        </filter>
        <path d="M42.4380051,2.73505699 C37.4076331,-1.43450956 29.9263318,-0.684523282 25.3090378,3.94932048 L23.5006741,5.76178731 L21.6923105,3.94932048 C17.084196,-0.684523282 9.59371511,-1.43450956 4.56334314,2.73505699 C-1.2013897,7.5206837 -1.50431356,16.1098122 3.65457156,21.2972173 L21.4169251,39.1361765 C22.564364,40.2879412 24.4278047,40.2879412 25.5752436,39.1361765 L43.3375972,21.2972173 C48.5056618,16.1098122 48.2027379,7.5206837 42.4380051,2.73505699 Z" id="path-7"></path>
        <filter x="-14.9%" y="-12.5%" width="129.8%" height="135.0%" filterUnits="objectBoundingBox" id="filter-8">
            <feOffset dx="0" dy="2" in="SourceAlpha" result="shadowOffsetOuter1"></feOffset>
            <feGaussianBlur stdDeviation="2" in="shadowOffsetOuter1" result="shadowBlurOuter1"></feGaussianBlur>
            <feColorMatrix values="0 0 0 0 0   0 0 0 0 0   0 0 0 0 0  0 0 0 0.177196558 0" type="matrix" in="shadowBlurOuter1"></feColorMatrix>
        </filter>
    </defs>
    <g id="Artboard" stroke="none" stroke-width="1" fill="none" fill-rule="evenodd">
        <g id="Rectangle">
            <use fill="black" fill-opacity="1" filter="url(#filter-2)" xlink:href="#path-1"></use>
            <use fill="#F6F6B4" fill-rule="evenodd" xlink:href="#path-1"></use>
        </g>
        <g id="envelop-base" transform="translate(14.000000, 18.000000)">
            <path d="M0,0 L70,47.9248826 L70,88 L4,88 C1.790861,88 2.705415e-16,86.209139 0,84 L0,0 Z" id="Path-4" fill="#FFFFD2"></path>
            <path d="M131,0 L131,84 C131,86.209139 129.209139,88 127,88 L61,88 L61,47.9248826 L131,0 Z" id="Path-4" fill="#FFFFD2"></path>
            <path d="M2,87 L41.337912,45.3942235 C47.6111021,38.7593786 56.3392579,35 65.4701987,35 L65.4701987,35 C74.6119768,35 83.3616021,38.7135153 89.7126266,45.2889694 L130,87 L2,87 Z" id="Path-3" fill="#FFFFEE"></path>
        </g>
        <g id="envelop-base" transform="translate(14.000000, 18.000000)">
            <path d="M0,0 L70,47.9248826 L70,88 L5,88 C2.23857625,88 1.2263553e-15,85.7614237 8.8817842e-16,83 L0,0 Z" id="Path-4" fill="#FFFFD2"></path>
            <path d="M131,0 L131,84 C131,86.209139 129.209139,88 127,88 L61,88 L61,47.9248826 L131,0 Z" id="Path-4" fill="#FFFFD2"></path>
            <g id="Path-3">
                <use fill="black" fill-opacity="1" filter="url(#filter-4)" xlink:href="#path-3"></use>
                <use fill="#FFFFEE" fill-rule="evenodd" xlink:href="#path-3"></use>
            </g>
        </g>
        <g id="Path-2">
            <use fill="black" fill-opacity="1" filter="url(#filter-6)" xlink:href="#path-5"></use>
            <use fill="#FFFFF6" fill-rule="evenodd" xlink:href="#path-5"></use>
        </g>
        <g id="heart-solid" transform="translate(56.000000, 39.000000)" fill-rule="nonzero">
            <g id="Shape">
                <use fill="black" fill-opacity="1" filter="url(#filter-8)" xlink:href="#path-7"></use>
                <use fill="#FF32C5" xlink:href="#path-7"></use>
            </g>
        </g>
    </g>
</svg>